<svg width="984px" height="928px" viewBox="0 0 984 928" version="1.1" xmlns="http://www.w3.org/2000/svg" xmlns:xlink="http://www.w3.org/1999/xlink">
    <style>
        path {
            fill: #000;
        }
        @media (prefers-color-scheme: dark) {
            path {
                fill: var(--color-white);
            }
        }
    </style>
    <g id="Page-1" stroke="none" stroke-width="1" fill="none" fill-rule="evenodd">
        <g id="elements-logo" fill-rule="nonzero">
            <path d="M748,413 C748,380.3 748,347.6 748,314.9 C748,262.7 748,210.6 748,158.4 C748,146.4 748,134.4 748,122.3 C748,115.2 744.2,108.6 738.1,105 C731.4,101.1 724.7,102.1 717.9,105 C691.2,116.5 664.6,128 637.9,139.6 C595.7,157.8 553.6,176 511.4,194.2 C501.6,198.4 491.9,202.6 482.1,206.8 C488.8,206.8 495.6,206.8 502.3,206.8 C475.8,195.4 449.4,183.9 422.9,172.5 C380.5,154.2 338.2,135.9 295.8,117.6 C286.1,113.4 276.4,109.2 266.7,105 C259.9,102.1 253.3,101.1 246.5,105 C240.4,108.6 236.6,115.2 236.6,122.3 C236.6,155 236.6,187.7 236.6,220.4 C236.6,272.5 236.6,324.7 236.6,376.8 C236.6,388.8 236.6,400.8 236.6,412.9 C236.6,419.3 240.3,427.5 246.5,430.2 C273.4,441.9 300.3,453.5 327.2,465.2 C369.6,483.6 412.1,502 454.5,520.4 C463.6,524.3 472.7,528.3 481.8,532.2 C489.6,535.6 494.9,535.4 502.5,532.2 C503.5,531.8 504.5,531.3 505.5,530.9 C510.3,528.8 515.2,526.7 520,524.6 C560.3,507.1 600.7,489.7 641,472.2 C672.7,458.5 704.8,445.4 736.2,431 C736.7,430.7 737.3,430.5 737.9,430.3 C747.5,426.1 750.4,411.3 745.1,402.9 C738.7,392.9 728,391.3 717.7,395.7 C691,407.2 664.4,418.8 637.7,430.3 C595.5,448.6 553.4,466.8 511.2,485.1 C501.4,489.3 491.7,493.5 481.9,497.8 C488.6,497.8 495.4,497.8 502.1,497.8 C475.6,486.3 449.2,474.9 422.7,463.4 C380.3,445 338,426.7 295.6,408.3 C285.9,404.1 276.2,399.9 266.5,395.7 C269.8,401.5 273.1,407.2 276.4,413 C276.4,380.3 276.4,347.6 276.4,314.9 C276.4,262.8 276.4,210.6 276.4,158.5 C276.4,146.5 276.4,134.5 276.4,122.4 C266.4,128.2 256.3,133.9 246.3,139.7 C273.2,151.3 300.1,162.9 327,174.6 C369.4,192.9 411.9,211.3 454.3,229.6 C463.4,233.5 472.5,237.5 481.6,241.4 C489.4,244.8 494.7,244.6 502.3,241.4 C503.3,241 504.3,240.5 505.3,240.1 C510.1,238 515,235.9 519.8,233.8 C560.1,216.4 600.5,198.9 640.8,181.5 C672.5,167.8 704.6,154.6 736,140.4 C736.5,140.2 737.1,139.9 737.7,139.7 C727.7,133.9 717.6,128.2 707.6,122.4 C707.6,155.1 707.6,187.8 707.6,220.5 C707.6,272.7 707.6,324.8 707.6,377 C707.6,389 707.6,401 707.6,413.1 C707.6,423.6 716.8,433.6 727.6,433.1 C738.9,432.5 748,424.2 748,413 Z" id="Path"></path>
            <path d="M738.1,104.7 C711.4,93.2 684.8,81.7 658.1,70.2 C616,52 573.8,33.8 531.7,15.7 C521.9,11.5 512.2,7.3 502.4,3.1 C505.7,8.9 509,14.6 512.3,20.4 C512.3,20.3 512.3,20.3 512.3,20.2 C512.3,13.1 508.5,6.5 502.4,2.9 C495.7,-1 489,1.28785871e-14 482.2,2.9 C455.7,14.3 429.3,25.8 402.8,37.2 C360.4,55.5 318.1,73.8 275.7,92.1 C266,96.3 256.3,100.5 246.6,104.7 C240.4,107.4 236.7,115.6 236.7,122 C236.7,122 236.7,122.1 236.7,122.1 C236.7,128.5 240.4,136.7 246.6,139.4 C273.5,151.1 300.5,162.8 327.4,174.4 C369.6,192.7 411.9,211 454.1,229.4 C463.4,233.4 472.6,237.5 481.9,241.4 C489.5,244.7 495.2,244.6 502.6,241.4 C503.6,241 504.6,240.5 505.6,240.1 C510.3,238 515.1,236 519.8,233.9 C560.2,216.4 600.7,198.8 641.1,181.3 C672.8,167.5 704.9,154.4 736.3,140 C736.8,139.7 737.4,139.5 738,139.3 C747.6,135.1 750.5,120.3 745.2,111.9 C738.8,101.9 728.1,100.3 717.8,104.7 C691.1,116.3 664.5,127.8 637.8,139.4 C595.6,157.7 553.5,176 511.3,194.3 C501.5,198.5 491.8,202.8 482,207 C488.7,207 495.5,207 502.2,207 C475.6,195.4 448.9,183.9 422.3,172.3 C380.2,154 338.1,135.8 296,117.5 C286.3,113.3 276.5,109 266.8,104.8 C270.1,110.6 273.4,116.3 276.7,122.1 C276.7,122.1 276.7,122 276.7,122 C273.4,127.8 270.1,133.5 266.8,139.3 C293.3,127.9 319.7,116.4 346.2,105 C388.6,86.7 430.9,68.4 473.3,50.1 C483,45.9 492.7,41.7 502.4,37.5 C492.4,31.7 482.3,26 472.3,20.2 C472.3,20.3 472.3,20.3 472.3,20.4 C472.3,26.8 476,35 482.2,37.7 C508.9,49.2 535.5,60.7 562.2,72.2 C604.4,90.4 646.5,108.5 688.7,126.7 C698.5,130.9 708.2,135.1 718,139.3 C723.1,141.5 727.8,142.9 733.4,141.3 C738,140 743.1,136.4 745.4,132.1 C749.9,123.4 748.4,109.1 738.1,104.7 Z" id="Path"></path>
            <path d="M472.3,224.2 C472.3,257.1 472.3,290 472.3,323 C472.3,375.1 472.3,427.1 472.3,479.2 C472.3,491.2 472.3,503.2 472.3,515.1 C472.3,525.6 481.5,535.6 492.3,535.1 C503.1,534.6 512.3,526.3 512.3,515.1 C512.3,482.2 512.3,449.3 512.3,416.3 C512.3,364.2 512.3,312.2 512.3,260.1 C512.3,248.1 512.3,236.1 512.3,224.2 C512.3,213.7 503.1,203.7 492.3,204.2 C481.5,204.7 472.3,213 472.3,224.2 L472.3,224.2 Z" id="Path"></path>
            <path d="M512.3,805.9 C512.3,773 512.3,740.1 512.3,707.2 C512.3,655.2 512.3,603.1 512.3,551.1 C512.3,539.1 512.3,527.1 512.3,515.2 C512.3,508.1 508.5,501.5 502.4,497.9 C495.7,494 489,495 482.2,497.9 C455.5,509.5 428.9,521 402.2,532.6 C360.1,550.9 317.9,569.1 275.8,587.4 C266.1,591.6 256.3,595.8 246.6,600.1 C253.3,600.1 260.1,600.1 266.8,600.1 C240.1,588.6 213.4,577 186.8,565.5 C144.6,547.3 102.4,529 60.3,510.8 C50.5,506.6 40.8,502.4 31,498.1 C24.2,495.2 17.6,494.2 10.8,498.1 C4.7,501.7 0.9,508.3 0.9,515.4 C0.9,548.3 0.9,581.2 0.9,614.1 C0.9,666.1 0.9,718.2 0.9,770.2 C0.9,782.2 0.9,794.2 0.9,806.1 C0.9,812.5 4.6,820.7 10.8,823.4 C37.8,835.1 64.7,846.7 91.7,858.4 C134,876.7 176.3,895 218.6,913.3 C227.9,917.3 237.1,921.3 246.4,925.3 C254,928.6 259.7,928.5 267.1,925.3 C268.1,924.9 269.1,924.4 270.1,924 C274.8,921.9 279.6,919.9 284.3,917.8 C324.7,900.3 365.1,882.8 405.5,865.3 C437.2,851.6 469.3,838.5 500.7,824.1 C501.2,823.8 501.8,823.6 502.4,823.4 C512,819.2 514.9,804.4 509.6,796 C503.2,786 492.5,784.4 482.2,788.8 C455.5,800.3 428.9,811.9 402.2,823.4 C360.1,841.6 317.9,859.9 275.8,878.1 C266.1,882.3 256.3,886.5 246.6,890.8 C253.3,890.8 260.1,890.8 266.8,890.8 C240.1,879.3 213.4,867.7 186.8,856.2 C144.6,838 102.4,819.7 60.3,801.5 C50.5,797.3 40.8,793.1 31,788.8 C34.3,794.6 37.6,800.3 40.9,806.1 C40.9,773.2 40.9,740.3 40.9,707.4 C40.9,655.4 40.9,603.3 40.9,551.3 C40.9,539.3 40.9,527.3 40.9,515.4 C30.9,521.2 20.8,526.9 10.8,532.7 C37.8,544.4 64.7,556 91.7,567.7 C134,586 176.3,604.3 218.6,622.6 C227.9,626.6 237.1,630.6 246.4,634.6 C254,637.9 259.7,637.8 267.1,634.6 C268.1,634.2 269.1,633.7 270.1,633.3 C274.8,631.2 279.6,629.2 284.3,627.1 C324.7,609.6 365.1,592.1 405.5,574.6 C437.2,560.9 469.2,547.6 500.7,533.3 C501.2,533.1 501.8,532.8 502.4,532.6 C492.4,526.8 482.3,521.1 472.3,515.3 C472.3,548.2 472.3,581.1 472.3,614 C472.3,666 472.3,718.1 472.3,770.1 C472.3,782.1 472.3,794.1 472.3,806 C472.3,816.5 481.5,826.5 492.3,826 C503.1,825.4 512.3,817.1 512.3,805.9 Z" id="Path"></path>
            <path d="M502.4,497.8 C475.5,486.1 448.6,474.5 421.7,462.8 C379.3,444.4 336.8,426 294.4,407.6 C285.3,403.7 276.2,399.7 267.1,395.8 C259.3,392.4 254,392.6 246.4,395.8 C245.4,396.2 244.4,396.7 243.4,397.1 C238.6,399.2 233.7,401.3 228.9,403.4 C188.5,420.9 148.1,438.4 107.7,455.8 C75.9,469.5 43.8,482.6 12.4,497.1 C11.9,497.4 11.3,497.6 10.7,497.8 C-2.4,503.5 -2.4,526.7 10.7,532.3 C37.7,544 64.6,555.6 91.6,567.3 C133.9,585.6 176.2,603.9 218.5,622.2 C227.8,626.2 237,630.2 246.3,634.2 C253.9,637.5 259.6,637.4 267,634.2 C268,633.8 269,633.3 270,632.9 C274.7,630.8 279.5,628.8 284.2,626.7 C324.6,609.2 365,591.7 405.4,574.2 C437.1,560.5 469.2,547.4 500.6,532.9 C501.1,532.6 501.7,532.4 502.3,532.2 C511.9,528 514.8,513.2 509.5,504.8 C503.1,494.8 492.4,493.2 482.1,497.6 C455.4,509.2 428.8,520.7 402.1,532.3 C360,550.6 317.8,568.8 275.7,587.1 C266,591.3 256.2,595.5 246.5,599.8 C253.2,599.8 260,599.8 266.7,599.8 C240,588.3 213.3,576.7 186.7,565.2 C144.5,547 102.3,528.7 60.2,510.5 C50.4,506.3 40.7,502.1 30.9,497.8 C30.9,509.3 30.9,520.8 30.9,532.3 C57.6,520.7 84.3,509.2 111,497.6 C153.2,479.3 195.4,461.1 237.6,442.8 C247.4,438.6 257.1,434.3 266.9,430.1 C260.2,430.1 253.4,430.1 246.7,430.1 C273.2,441.6 299.6,453 326.1,464.5 C368.5,482.9 410.8,501.2 453.2,519.6 C462.9,523.8 472.6,528 482.3,532.2 C491.9,536.3 504.2,535.4 509.7,525 C514.1,516.5 512.6,502.2 502.4,497.8 Z" id="Path"></path>
            <path d="M236.7,617.2 C236.7,650.1 236.7,683 236.7,715.9 C236.7,767.9 236.7,819.9 236.7,872 C236.7,884 236.7,895.9 236.7,907.9 C236.7,918.4 245.9,928.4 256.7,927.9 C267.5,927.4 276.7,919.1 276.7,907.9 C276.7,875 276.7,842.1 276.7,809.2 C276.7,757.2 276.7,705.2 276.7,653.1 C276.7,641.1 276.7,629.2 276.7,617.2 C276.7,606.7 267.5,596.7 256.7,597.2 C245.9,597.7 236.7,606 236.7,617.2 L236.7,617.2 Z" id="Path"></path>
            <path d="M983.2,805.9 C983.2,773 983.2,740.1 983.2,707.2 C983.2,655.2 983.2,603.1 983.2,551.1 C983.2,539.1 983.2,527.1 983.2,515.2 C983.2,508.1 979.4,501.5 973.3,497.9 C966.6,494 959.9,495 953.1,497.9 C926.6,509.4 900.2,520.8 873.7,532.3 C831.4,550.7 789,569 746.7,587.4 C737,591.6 727.3,595.8 717.7,600 C724.4,600 731.2,600 737.9,600 C711.4,588.5 685,577.1 658.5,565.6 C616.2,547.2 573.8,528.9 531.5,510.5 C521.8,506.3 512.1,502.1 502.5,497.9 C495.7,495 489,494 482.3,497.9 C476.2,501.5 472.4,508.1 472.4,515.2 C472.4,548.1 472.4,581 472.4,613.9 C472.4,665.9 472.4,718 472.4,770 C472.4,782 472.4,794 472.4,805.9 C472.4,812.3 476.1,820.5 482.3,823.2 C509,834.8 535.8,846.4 562.5,858 C604.9,876.4 647.2,894.7 689.6,913.1 C698.9,917.1 708.2,921.2 717.5,925.2 C725.1,928.5 730.8,928.4 738.2,925.2 C739.2,924.8 740.1,924.4 741.1,923.9 C745.8,921.9 750.5,919.8 755.3,917.8 C795.6,900.3 835.9,882.9 876.2,865.4 C908,851.6 940.2,838.5 971.7,824 C972.2,823.7 972.8,823.5 973.4,823.3 C983,819.1 985.9,804.3 980.6,795.9 C974.2,785.9 963.5,784.3 953.2,788.7 C926.7,800.2 900.3,811.6 873.8,823.1 C831.5,841.4 789.1,859.8 746.8,878.1 C737.1,882.3 727.4,886.5 717.8,890.7 C724.5,890.7 731.3,890.7 738,890.7 C711.5,879.2 685.1,867.8 658.6,856.3 C616.3,838 573.9,819.6 531.6,801.3 C521.9,797.1 512.2,792.9 502.6,788.7 C505.9,794.5 509.2,800.2 512.5,806 C512.5,773.1 512.5,740.2 512.5,707.3 C512.5,655.3 512.5,603.2 512.5,551.2 C512.5,539.2 512.5,527.2 512.5,515.3 C502.5,521.1 492.4,526.8 482.4,532.6 C509.1,544.2 535.9,555.8 562.6,567.4 C605,585.8 647.3,604.1 689.7,622.5 C699,626.5 708.3,630.6 717.6,634.6 C725.2,637.9 730.9,637.8 738.3,634.6 C739.3,634.2 740.2,633.8 741.2,633.3 C745.9,631.3 750.6,629.2 755.4,627.2 C795.7,609.7 836,592.3 876.3,574.8 C908.1,561 940.2,547.7 971.8,533.4 C972.4,533.2 972.9,532.9 973.5,532.7 C963.5,526.9 953.4,521.2 943.4,515.4 C943.4,548.3 943.4,581.2 943.4,614.1 C943.4,666.1 943.4,718.2 943.4,770.2 C943.4,782.2 943.4,794.2 943.4,806.1 C943.4,816.6 952.6,826.6 963.4,826.1 C974,825.4 983.2,817.1 983.2,805.9 Z" id="Path"></path>
            <path d="M973.2,497.9 C946.3,486.2 919.5,474.6 892.6,462.9 C850.2,444.5 807.9,426.1 765.5,407.7 C756.4,403.8 747.4,399.8 738.3,395.9 C730.5,392.5 725.2,392.7 717.6,395.9 C716.6,396.3 715.6,396.8 714.6,397.2 C709.8,399.3 704.9,401.4 700.1,403.5 C659.8,421 619.4,438.4 579.1,455.9 C547.4,469.6 515.3,482.7 483.9,497.1 C483.4,497.4 482.8,497.6 482.2,497.8 C469.1,503.5 469.1,526.7 482.2,532.3 C508.9,543.9 535.7,555.5 562.4,567.1 C604.8,585.5 647.1,603.8 689.5,622.2 C698.8,626.2 708.1,630.3 717.4,634.3 C725,637.6 730.7,637.5 738.1,634.3 C739.1,633.9 740,633.5 741,633 C745.7,631 750.4,628.9 755.2,626.9 C795.5,609.4 835.8,592 876.1,574.5 C907.9,560.7 940.1,547.6 971.6,533.1 C972.1,532.8 972.7,532.6 973.3,532.4 C982.9,528.2 985.8,513.4 980.5,505 C974.1,495 963.4,493.4 953.1,497.8 C926.6,509.3 900.2,520.7 873.7,532.2 C831.4,550.6 789,568.9 746.7,587.3 C737,591.5 727.3,595.7 717.7,599.9 C724.4,599.9 731.2,599.9 737.9,599.9 C711.4,588.4 685,577 658.5,565.5 C616.2,547.1 573.8,528.8 531.5,510.4 C521.8,506.2 512.1,502 502.5,497.8 C502.5,509.3 502.5,520.8 502.5,532.3 C529.2,520.8 555.8,509.2 582.5,497.7 C624.7,479.4 666.8,461.2 709,442.9 C718.8,438.7 728.5,434.5 738.3,430.2 C731.6,430.2 724.8,430.2 718.1,430.2 C744.5,441.7 770.9,453.2 797.4,464.6 C839.7,483 882,501.3 924.2,519.7 C933.9,523.9 943.5,528.1 953.2,532.3 C962.8,536.5 975.1,535.4 980.6,525.1 C985,516.6 983.5,502.3 973.2,497.9 Z" id="Path"></path>
            <path d="M707.7,617.2 C707.7,650.1 707.7,683 707.7,715.9 C707.7,767.9 707.7,819.9 707.7,872 C707.7,884 707.7,895.9 707.7,907.9 C707.7,918.4 716.9,928.4 727.7,927.9 C738.5,927.4 747.7,919.1 747.7,907.9 C747.7,875 747.7,842.1 747.7,809.2 C747.7,757.2 747.7,705.2 747.7,653.1 C747.7,641.1 747.7,629.2 747.7,617.2 C747.7,606.7 738.5,596.7 727.7,597.2 C716.9,597.7 707.7,606 707.7,617.2 L707.7,617.2 Z" id="Path"></path>
        </g>
    </g>
</svg>
