<svg width="512px" height="484px" viewBox="0 0 512 484" version="1.1" xmlns="http://www.w3.org/2000/svg" xmlns:xlink="http://www.w3.org/1999/xlink">
    <g id="Page-1" stroke="none" stroke-width="1" fill="none" fill-rule="evenodd">
        <g id="Artboard" transform="translate(0.000000, -14.000000)" fill="#298E93" fill-rule="nonzero">
            <g id="favicon" transform="translate(0.000000, 14.569106)">
                <path d="M389.203252,214.894309 C389.203252,197.879675 389.203252,180.865041 389.203252,163.850407 C389.203252,136.689431 389.203252,109.580488 389.203252,82.4195122 C389.203252,76.1756098 389.203252,69.9317073 389.203252,63.6357724 C389.203252,59.9414634 387.226016,56.5073171 384.052033,54.6341463 C380.565854,52.604878 377.079675,53.1252033 373.541463,54.6341463 C359.64878,60.6178862 345.80813,66.601626 331.915447,72.6373984 C309.957724,82.1073171 288.052033,91.5772358 266.094309,101.047154 C260.995122,103.23252 255.947967,105.417886 250.84878,107.603252 C254.334959,107.603252 257.873171,107.603252 261.35935,107.603252 C247.570732,101.671545 233.834146,95.6878049 220.045528,89.7560976 C197.98374,80.2341463 175.973984,70.7121951 153.912195,61.1902439 C148.865041,59.004878 143.817886,56.8195122 138.770732,54.6341463 C135.23252,53.1252033 131.798374,52.604878 128.260163,54.6341463 C125.086179,56.5073171 123.108943,59.9414634 123.108943,63.6357724 C123.108943,80.6504065 123.108943,97.6650407 123.108943,114.679675 C123.108943,141.788618 123.108943,168.949593 123.108943,196.058537 C123.108943,202.302439 123.108943,208.546341 123.108943,214.842276 C123.108943,218.172358 125.034146,222.439024 128.260163,223.843902 C142.256911,229.931707 156.253659,235.96748 170.250407,242.055285 C192.312195,251.629268 214.426016,261.203252 236.487805,270.777236 C241.222764,272.806504 245.957724,274.887805 250.692683,276.917073 C254.75122,278.686179 257.508943,278.582114 261.463415,276.917073 C261.98374,276.708943 262.504065,276.44878 263.02439,276.24065 C265.521951,275.147967 268.071545,274.055285 270.569106,272.962602 C291.538211,263.856911 312.55935,254.803252 333.528455,245.697561 C350.022764,238.569106 366.725203,231.752846 383.063415,224.260163 C383.323577,224.104065 383.635772,224 383.947967,223.895935 C388.943089,221.710569 390.452033,214.009756 387.694309,209.639024 C384.364228,204.435772 378.796748,203.603252 373.437398,205.892683 C359.544715,211.876423 345.704065,217.912195 331.811382,223.895935 C309.853659,233.417886 287.947967,242.887805 265.990244,252.409756 C260.891057,254.595122 255.843902,256.780488 250.744715,259.017886 C254.230894,259.017886 257.769106,259.017886 261.255285,259.017886 C247.466667,253.034146 233.730081,247.102439 219.941463,241.118699 C197.879675,231.544715 175.869919,222.022764 153.80813,212.44878 C148.760976,210.263415 143.713821,208.078049 138.666667,205.892683 C140.38374,208.910569 142.100813,211.876423 143.817886,214.894309 C143.817886,197.879675 143.817886,180.865041 143.817886,163.850407 C143.817886,136.741463 143.817886,109.580488 143.817886,82.4715447 C143.817886,76.2276423 143.817886,69.9837398 143.817886,63.6878049 C138.614634,66.7056911 133.35935,69.6715447 128.156098,72.6894309 C142.152846,78.7252033 156.149593,84.7609756 170.146341,90.8487805 C192.20813,100.370732 214.321951,109.944715 236.38374,119.466667 C241.118699,121.495935 245.853659,123.577236 250.588618,125.606504 C254.647154,127.37561 257.404878,127.271545 261.35935,125.606504 C261.879675,125.398374 262.4,125.138211 262.920325,124.930081 C265.417886,123.837398 267.96748,122.744715 270.465041,121.652033 C291.434146,112.598374 312.455285,103.492683 333.42439,94.4390244 C349.918699,87.3105691 366.621138,80.4422764 382.95935,73.0536585 C383.219512,72.9495935 383.531707,72.7934959 383.843902,72.6894309 C378.64065,69.6715447 373.385366,66.7056911 368.182114,63.6878049 C368.182114,80.702439 368.182114,97.7170732 368.182114,114.731707 C368.182114,141.892683 368.182114,169.001626 368.182114,196.162602 C368.182114,202.406504 368.182114,208.650407 368.182114,214.946341 C368.182114,220.409756 372.969106,225.613008 378.588618,225.352846 C384.468293,225.04065 389.203252,220.721951 389.203252,214.894309 Z" id="Path"></path>
                <path d="M384.052033,54.4780488 C370.15935,48.4943089 356.318699,42.5105691 342.426016,36.5268293 C320.520325,27.0569106 298.562602,17.5869919 276.656911,8.16910569 C271.557724,5.98373984 266.510569,3.79837398 261.411382,1.61300813 C263.128455,4.63089431 264.845528,7.59674797 266.562602,10.6146341 C266.562602,10.5626016 266.562602,10.5626016 266.562602,10.5105691 C266.562602,6.81626016 264.585366,3.38211382 261.411382,1.50894309 C257.925203,-0.520325203 254.439024,7.38298311e-15 250.900813,1.50894309 C237.112195,7.44065041 223.37561,13.4243902 209.586992,19.3560976 C187.525203,28.8780488 165.515447,38.4 143.453659,47.9219512 C138.406504,50.1073171 133.35935,52.2926829 128.312195,54.4780488 C125.086179,55.8829268 123.160976,60.1495935 123.160976,63.4796748 C123.160976,63.4796748 123.160976,63.5317073 123.160976,63.5317073 C123.160976,66.8617886 125.086179,71.1284553 128.312195,72.5333333 C142.308943,78.6211382 156.357724,84.7089431 170.354472,90.7447154 C192.312195,100.266667 214.321951,109.788618 236.279675,119.362602 C241.118699,121.443902 245.905691,123.577236 250.744715,125.606504 C254.699187,127.323577 257.665041,127.271545 261.515447,125.606504 C262.035772,125.398374 262.556098,125.138211 263.076423,124.930081 C265.521951,123.837398 268.019512,122.796748 270.465041,121.704065 C291.486179,112.598374 312.55935,103.44065 333.580488,94.3349593 C350.074797,87.1544715 366.777236,80.3382114 383.115447,72.8455285 C383.37561,72.6894309 383.687805,72.5853659 384,72.4813008 C388.995122,70.295935 390.504065,62.595122 387.746341,58.2243902 C384.41626,53.0211382 378.84878,52.1886179 373.489431,54.4780488 C359.596748,60.5138211 345.756098,66.497561 331.863415,72.5333333 C309.905691,82.0552846 288,91.5772358 266.042276,101.099187 C260.943089,103.284553 255.895935,105.521951 250.796748,107.707317 C254.282927,107.707317 257.821138,107.707317 261.307317,107.707317 C247.466667,101.671545 233.573984,95.6878049 219.733333,89.6520325 C197.827642,80.1300813 175.921951,70.6601626 154.01626,61.1382114 C148.969106,58.9528455 143.869919,56.7154472 138.822764,54.5300813 C140.539837,57.5479675 142.256911,60.5138211 143.973984,63.5317073 C143.973984,63.5317073 143.973984,63.4796748 143.973984,63.4796748 C142.256911,66.497561 140.539837,69.4634146 138.822764,72.4813008 C152.611382,66.5495935 166.347967,60.5658537 180.136585,54.6341463 C202.198374,45.1121951 224.20813,35.5902439 246.269919,26.0682927 C251.317073,23.8829268 256.364228,21.697561 261.411382,19.5121951 C256.20813,16.4943089 250.952846,13.5284553 245.749593,10.5105691 C245.749593,10.5626016 245.749593,10.5626016 245.749593,10.6146341 C245.749593,13.9447154 247.674797,18.2113821 250.900813,19.6162602 C264.793496,25.6 278.634146,31.5837398 292.526829,37.5674797 C314.484553,47.0373984 336.390244,56.4552846 358.347967,65.9252033 C363.447154,68.1105691 368.494309,70.295935 373.593496,72.4813008 C376.247154,73.6260163 378.692683,74.3544715 381.606504,73.5219512 C384,72.8455285 386.653659,70.9723577 387.850407,68.7349593 C390.19187,64.2081301 389.411382,56.7674797 384.052033,54.4780488 Z" id="Path"></path>
                <path d="M245.749593,116.656911 C245.749593,133.77561 245.749593,150.894309 245.749593,168.065041 C245.749593,195.173984 245.749593,222.230894 245.749593,249.339837 C245.749593,255.58374 245.749593,261.827642 245.749593,268.019512 C245.749593,273.482927 250.536585,278.686179 256.156098,278.426016 C261.77561,278.165854 266.562602,273.847154 266.562602,268.019512 C266.562602,250.900813 266.562602,233.782114 266.562602,216.611382 C266.562602,189.502439 266.562602,162.445528 266.562602,135.336585 C266.562602,129.092683 266.562602,122.84878 266.562602,116.656911 C266.562602,111.193496 261.77561,105.990244 256.156098,106.250407 C250.536585,106.510569 245.749593,110.829268 245.749593,116.656911 L245.749593,116.656911 Z" id="Path"></path>
                <path d="M266.562602,419.330081 C266.562602,402.211382 266.562602,385.092683 266.562602,367.973984 C266.562602,340.917073 266.562602,313.80813 266.562602,286.75122 C266.562602,280.507317 266.562602,274.263415 266.562602,268.071545 C266.562602,264.377236 264.585366,260.943089 261.411382,259.069919 C257.925203,257.04065 254.439024,257.560976 250.900813,259.069919 C237.00813,265.105691 223.16748,271.089431 209.274797,277.125203 C187.369106,286.647154 165.411382,296.117073 143.505691,305.639024 C138.458537,307.82439 133.35935,310.009756 128.312195,312.247154 C131.798374,312.247154 135.336585,312.247154 138.822764,312.247154 C124.930081,306.263415 111.037398,300.227642 97.196748,294.243902 C75.2390244,284.773984 53.2813008,275.252033 31.3756098,265.782114 C26.2764228,263.596748 21.2292683,261.411382 16.1300813,259.173984 C12.5918699,257.665041 9.15772358,257.144715 5.6195122,259.173984 C2.44552846,261.047154 0.468292683,264.481301 0.468292683,268.17561 C0.468292683,285.294309 0.468292683,302.413008 0.468292683,319.531707 C0.468292683,346.588618 0.468292683,373.697561 0.468292683,400.754472 C0.468292683,406.998374 0.468292683,413.242276 0.468292683,419.434146 C0.468292683,422.764228 2.39349593,427.030894 5.6195122,428.435772 C19.6682927,434.523577 33.6650407,440.55935 47.7138211,446.647154 C69.7235772,456.169106 91.7333333,465.691057 113.743089,475.213008 C118.582114,477.294309 123.369106,479.37561 128.20813,481.456911 C132.162602,483.173984 135.128455,483.121951 138.978862,481.456911 C139.499187,481.24878 140.019512,480.988618 140.539837,480.780488 C142.985366,479.687805 145.482927,478.647154 147.928455,477.554472 C168.949593,468.44878 189.970732,459.343089 210.99187,450.237398 C227.486179,443.108943 244.188618,436.292683 260.526829,428.8 C260.786992,428.643902 261.099187,428.539837 261.411382,428.435772 C266.406504,426.250407 267.915447,418.549593 265.157724,414.178862 C261.827642,408.97561 256.260163,408.143089 250.900813,410.43252 C237.00813,416.41626 223.16748,422.452033 209.274797,428.435772 C187.369106,437.905691 165.411382,447.427642 143.505691,456.897561 C138.458537,459.082927 133.35935,461.268293 128.312195,463.505691 C131.798374,463.505691 135.336585,463.505691 138.822764,463.505691 C124.930081,457.521951 111.037398,451.486179 97.196748,445.502439 C75.2390244,436.03252 53.2813008,426.510569 31.3756098,417.04065 C26.2764228,414.855285 21.2292683,412.669919 16.1300813,410.43252 C17.8471545,413.450407 19.5642276,416.41626 21.2813008,419.434146 C21.2813008,402.315447 21.2813008,385.196748 21.2813008,368.078049 C21.2813008,341.021138 21.2813008,313.912195 21.2813008,286.855285 C21.2813008,280.611382 21.2813008,274.36748 21.2813008,268.17561 C16.0780488,271.193496 10.8227642,274.15935 5.6195122,277.177236 C19.6682927,283.265041 33.6650407,289.300813 47.7138211,295.388618 C69.7235772,304.910569 91.7333333,314.43252 113.743089,323.954472 C118.582114,326.035772 123.369106,328.117073 128.20813,330.198374 C132.162602,331.915447 135.128455,331.863415 138.978862,330.198374 C139.499187,329.990244 140.019512,329.730081 140.539837,329.521951 C142.985366,328.429268 145.482927,327.388618 147.928455,326.295935 C168.949593,317.190244 189.970732,308.084553 210.99187,298.978862 C227.486179,291.850407 244.136585,284.930081 260.526829,277.489431 C260.786992,277.385366 261.099187,277.229268 261.411382,277.125203 C256.20813,274.107317 250.952846,271.141463 245.749593,268.123577 C245.749593,285.242276 245.749593,302.360976 245.749593,319.479675 C245.749593,346.536585 245.749593,373.645528 245.749593,400.702439 C245.749593,406.946341 245.749593,413.190244 245.749593,419.382114 C245.749593,424.845528 250.536585,430.04878 256.156098,429.788618 C261.77561,429.476423 266.562602,425.157724 266.562602,419.330081 Z" id="Path"></path>
                <path d="M261.411382,259.017886 C247.414634,252.930081 233.417886,246.894309 219.421138,240.806504 C197.35935,231.23252 175.245528,221.658537 153.18374,212.084553 C148.44878,210.055285 143.713821,207.973984 138.978862,205.944715 C134.920325,204.17561 132.162602,204.279675 128.20813,205.944715 C127.687805,206.152846 127.16748,206.413008 126.647154,206.621138 C124.149593,207.713821 121.6,208.806504 119.102439,209.899187 C98.0813008,219.004878 77.0601626,228.110569 56.0390244,237.164228 C39.4926829,244.292683 22.7902439,251.108943 6.45203252,258.653659 C6.19186992,258.809756 5.8796748,258.913821 5.56747967,259.017886 C-1.24878049,261.98374 -1.24878049,274.055285 5.56747967,276.969106 C19.6162602,283.056911 33.6130081,289.092683 47.6617886,295.180488 C69.6715447,304.702439 91.6813008,314.22439 113.691057,323.746341 C118.530081,325.827642 123.317073,327.908943 128.156098,329.990244 C132.110569,331.707317 135.076423,331.655285 138.926829,329.990244 C139.447154,329.782114 139.96748,329.521951 140.487805,329.313821 C142.933333,328.221138 145.430894,327.180488 147.876423,326.087805 C168.897561,316.982114 189.918699,307.876423 210.939837,298.770732 C227.434146,291.642276 244.136585,284.826016 260.474797,277.281301 C260.734959,277.125203 261.047154,277.021138 261.35935,276.917073 C266.354472,274.731707 267.863415,267.030894 265.105691,262.660163 C261.77561,257.456911 256.20813,256.62439 250.84878,258.913821 C236.956098,264.949593 223.115447,270.933333 209.222764,276.969106 C187.317073,286.491057 165.35935,295.960976 143.453659,305.482927 C138.406504,307.668293 133.307317,309.853659 128.260163,312.091057 C131.746341,312.091057 135.284553,312.091057 138.770732,312.091057 C124.878049,306.107317 110.985366,300.071545 97.1447154,294.087805 C75.1869919,284.617886 53.2292683,275.095935 31.3235772,265.626016 C26.2243902,263.44065 21.1772358,261.255285 16.0780488,259.017886 C16.0780488,265.001626 16.0780488,270.985366 16.0780488,276.969106 C29.9707317,270.933333 43.8634146,264.949593 57.7560976,258.913821 C79.7138211,249.39187 101.671545,239.921951 123.629268,230.4 C128.728455,228.214634 133.77561,225.977236 138.874797,223.79187 C135.388618,223.79187 131.850407,223.79187 128.364228,223.79187 C142.152846,229.77561 155.889431,235.707317 169.678049,241.691057 C191.739837,251.265041 213.749593,260.786992 235.811382,270.360976 C240.858537,272.546341 245.905691,274.731707 250.952846,276.917073 C255.947967,279.050407 262.347967,278.582114 265.209756,273.170732 C267.499187,268.747967 266.718699,261.307317 261.411382,259.017886 Z" id="Path"></path>
                <path d="M123.160976,321.144715 C123.160976,338.263415 123.160976,355.382114 123.160976,372.500813 C123.160976,399.557724 123.160976,426.614634 123.160976,453.723577 C123.160976,459.96748 123.160976,466.15935 123.160976,472.403252 C123.160976,477.866667 127.947967,483.069919 133.56748,482.809756 C139.186992,482.549593 143.973984,478.230894 143.973984,472.403252 C143.973984,455.284553 143.973984,438.165854 143.973984,421.047154 C143.973984,393.990244 143.973984,366.933333 143.973984,339.82439 C143.973984,333.580488 143.973984,327.388618 143.973984,321.144715 C143.973984,315.681301 139.186992,310.478049 133.56748,310.738211 C127.947967,310.998374 123.160976,315.317073 123.160976,321.144715 L123.160976,321.144715 Z" id="Path"></path>
                <path d="M511.58374,419.330081 C511.58374,402.211382 511.58374,385.092683 511.58374,367.973984 C511.58374,340.917073 511.58374,313.80813 511.58374,286.75122 C511.58374,280.507317 511.58374,274.263415 511.58374,268.071545 C511.58374,264.377236 509.606504,260.943089 506.43252,259.069919 C502.946341,257.04065 499.460163,257.560976 495.921951,259.069919 C482.133333,265.053659 468.396748,270.985366 454.60813,276.969106 C432.598374,286.543089 410.536585,296.065041 388.526829,305.639024 C383.479675,307.82439 378.43252,310.009756 373.437398,312.195122 C376.923577,312.195122 380.461789,312.195122 383.947967,312.195122 C370.15935,306.211382 356.422764,300.279675 342.634146,294.295935 C320.62439,284.721951 298.562602,275.2 276.552846,265.626016 C271.505691,263.44065 266.458537,261.255285 261.463415,259.069919 C257.925203,257.560976 254.439024,257.04065 250.952846,259.069919 C247.778862,260.943089 245.801626,264.377236 245.801626,268.071545 C245.801626,285.190244 245.801626,302.308943 245.801626,319.427642 C245.801626,346.484553 245.801626,373.593496 245.801626,400.650407 C245.801626,406.894309 245.801626,413.138211 245.801626,419.330081 C245.801626,422.660163 247.726829,426.926829 250.952846,428.331707 C264.845528,434.36748 278.790244,440.403252 292.682927,446.439024 C314.744715,456.013008 336.754472,465.534959 358.81626,475.108943 C363.655285,477.190244 368.494309,479.323577 373.333333,481.404878 C377.287805,483.121951 380.253659,483.069919 384.104065,481.404878 C384.62439,481.196748 385.092683,480.988618 385.613008,480.728455 C388.058537,479.687805 390.504065,478.595122 393.001626,477.554472 C413.970732,468.44878 434.939837,459.395122 455.908943,450.289431 C472.455285,443.108943 489.209756,436.292683 505.6,428.747967 C505.860163,428.59187 506.172358,428.487805 506.484553,428.38374 C511.479675,426.198374 512.988618,418.497561 510.230894,414.126829 C506.900813,408.923577 501.333333,408.091057 495.973984,410.380488 C482.185366,416.364228 468.44878,422.295935 454.660163,428.279675 C432.650407,437.801626 410.588618,447.37561 388.578862,456.897561 C383.531707,459.082927 378.484553,461.268293 373.489431,463.453659 C376.97561,463.453659 380.513821,463.453659 384,463.453659 C370.211382,457.469919 356.474797,451.538211 342.686179,445.554472 C320.676423,436.03252 298.614634,426.458537 276.604878,416.936585 C271.557724,414.75122 266.510569,412.565854 261.515447,410.380488 C263.23252,413.398374 264.949593,416.364228 266.666667,419.382114 C266.666667,402.263415 266.666667,385.144715 266.666667,368.026016 C266.666667,340.969106 266.666667,313.860163 266.666667,286.803252 C266.666667,280.55935 266.666667,274.315447 266.666667,268.123577 C261.463415,271.141463 256.20813,274.107317 251.004878,277.125203 C264.897561,283.160976 278.842276,289.196748 292.734959,295.23252 C314.796748,304.806504 336.806504,314.328455 358.868293,323.902439 C363.707317,325.98374 368.546341,328.117073 373.385366,330.198374 C377.339837,331.915447 380.305691,331.863415 384.156098,330.198374 C384.676423,329.990244 385.144715,329.782114 385.665041,329.521951 C388.110569,328.481301 390.556098,327.388618 393.053659,326.347967 C414.022764,317.242276 434.99187,308.188618 455.960976,299.082927 C472.507317,291.902439 489.209756,284.982114 505.652033,277.541463 C505.964228,277.437398 506.22439,277.281301 506.536585,277.177236 C501.333333,274.15935 496.078049,271.193496 490.874797,268.17561 C490.874797,285.294309 490.874797,302.413008 490.874797,319.531707 C490.874797,346.588618 490.874797,373.697561 490.874797,400.754472 C490.874797,406.998374 490.874797,413.242276 490.874797,419.434146 C490.874797,424.897561 495.661789,430.100813 501.281301,429.84065 C506.796748,429.476423 511.58374,425.157724 511.58374,419.330081 Z" id="Path"></path>
                <path d="M506.380488,259.069919 C492.38374,252.982114 478.439024,246.946341 464.442276,240.858537 C442.380488,231.284553 420.370732,221.710569 398.308943,212.136585 C393.573984,210.107317 388.891057,208.026016 384.156098,205.996748 C380.097561,204.227642 377.339837,204.331707 373.385366,205.996748 C372.865041,206.204878 372.344715,206.465041 371.82439,206.673171 C369.326829,207.765854 366.777236,208.858537 364.279675,209.95122 C343.310569,219.056911 322.289431,228.110569 301.320325,237.21626 C284.826016,244.344715 268.123577,251.160976 251.785366,258.653659 C251.525203,258.809756 251.213008,258.913821 250.900813,259.017886 C244.084553,261.98374 244.084553,274.055285 250.900813,276.969106 C264.793496,283.004878 278.738211,289.04065 292.630894,295.076423 C314.692683,304.650407 336.702439,314.172358 358.764228,323.746341 C363.603252,325.827642 368.442276,327.960976 373.281301,330.042276 C377.235772,331.75935 380.201626,331.707317 384.052033,330.042276 C384.572358,329.834146 385.04065,329.626016 385.560976,329.365854 C388.006504,328.325203 390.452033,327.23252 392.949593,326.19187 C413.918699,317.086179 434.887805,308.03252 455.856911,298.926829 C472.403252,291.746341 489.157724,284.930081 505.547967,277.385366 C505.80813,277.229268 506.120325,277.125203 506.43252,277.021138 C511.427642,274.835772 512.936585,267.134959 510.178862,262.764228 C506.84878,257.560976 501.281301,256.728455 495.921951,259.017886 C482.133333,265.001626 468.396748,270.933333 454.60813,276.917073 C432.598374,286.491057 410.536585,296.013008 388.526829,305.586992 C383.479675,307.772358 378.43252,309.957724 373.437398,312.143089 C376.923577,312.143089 380.461789,312.143089 383.947967,312.143089 C370.15935,306.15935 356.422764,300.227642 342.634146,294.243902 C320.62439,284.669919 298.562602,275.147967 276.552846,265.573984 C271.505691,263.388618 266.458537,261.203252 261.463415,259.017886 C261.463415,265.001626 261.463415,270.985366 261.463415,276.969106 C275.356098,270.985366 289.196748,264.949593 303.089431,258.965854 C325.047154,249.443902 346.952846,239.973984 368.910569,230.452033 C374.009756,228.266667 379.056911,226.081301 384.156098,223.843902 C380.669919,223.843902 377.131707,223.843902 373.645528,223.843902 C387.382114,229.827642 401.118699,235.811382 414.907317,241.743089 C436.917073,251.317073 458.926829,260.839024 480.884553,270.413008 C485.931707,272.598374 490.926829,274.78374 495.973984,276.969106 C500.969106,279.154472 507.369106,278.582114 510.230894,273.222764 C512.520325,268.8 511.739837,261.35935 506.380488,259.069919 Z" id="Path"></path>
                <path d="M368.234146,321.144715 C368.234146,338.263415 368.234146,355.382114 368.234146,372.500813 C368.234146,399.557724 368.234146,426.614634 368.234146,453.723577 C368.234146,459.96748 368.234146,466.15935 368.234146,472.403252 C368.234146,477.866667 373.021138,483.069919 378.64065,482.809756 C384.260163,482.549593 389.047154,478.230894 389.047154,472.403252 C389.047154,455.284553 389.047154,438.165854 389.047154,421.047154 C389.047154,393.990244 389.047154,366.933333 389.047154,339.82439 C389.047154,333.580488 389.047154,327.388618 389.047154,321.144715 C389.047154,315.681301 384.260163,310.478049 378.64065,310.738211 C373.021138,310.998374 368.234146,315.317073 368.234146,321.144715 L368.234146,321.144715 Z" id="Path"></path>
            </g>
        </g>
    </g>
</svg>
