<svg width="90px" height="90px" viewBox="0 0 90 90" version="1.1" xmlns="http://www.w3.org/2000/svg" xmlns:xlink="http://www.w3.org/1999/xlink">
    <g id="Page-1" stroke="none" stroke-width="1" fill-rule="evenodd">
        <g id="gear" fill-rule="nonzero">
            <path d="M49.674,89.998 L40.325,89.998 C37.887,89.998 35.83,88.252 35.433,85.848 L33.863,76.328 C32.8,75.947 31.751,75.512 30.725,75.023 L22.878,80.646 C20.953,82.025 18.159,81.792 16.486,80.126 L9.875,73.515 C8.149,71.786 7.931,69.097 9.354,67.117 L14.977,59.277 C14.488,58.248 14.052,57.199 13.672,56.134 L4.154,54.566 C1.745,54.166 0,52.105 0,49.674 L0,40.329 C0,37.886 1.747,35.827 4.154,35.433 L13.671,33.865 C14.05,32.804 14.486,31.755 14.974,30.728 L9.35,22.884 C7.933,20.899 8.152,18.21 9.872,16.488 L16.481,9.88 C18.153,8.206 20.954,7.974 22.879,9.356 L30.722,14.979 C31.749,14.49 32.8,14.055 33.862,13.676 L35.431,4.153 C35.827,1.749 37.884,0.003 40.323,0.003 L49.67,0.003 C52.108,0.003 54.164,1.749 54.563,4.153 L56.131,13.676 C57.195,14.055 58.242,14.49 59.272,14.979 L67.116,9.356 C69.044,7.974 71.845,8.206 73.516,9.882 L80.121,16.486 C81.844,18.207 82.064,20.896 80.644,22.88 L75.017,30.729 C75.509,31.76 75.945,32.809 76.322,33.866 L85.843,35.436 C88.25,35.827 90,37.883 90,40.325 L90,49.67 C90,52.115 88.248,54.172 85.842,54.563 L76.324,56.135 C75.947,57.194 75.512,58.244 75.019,59.274 L80.648,67.118 C82.07,69.102 81.847,71.79 80.125,73.514 L73.516,80.119 C72.58,81.057 71.332,81.574 70.004,81.574 L70.004,81.574 C68.965,81.574 67.967,81.254 67.119,80.648 L59.271,75.021 C58.244,75.511 57.197,75.947 56.136,76.326 L54.564,85.847 C54.168,88.252 52.111,89.998 49.674,89.998 Z M30.514,70.025 C30.884,70.025 31.256,70.111 31.596,70.293 C33.201,71.143 34.882,71.842 36.596,72.367 C37.434,72.627 38.053,73.336 38.196,74.199 L39.993,85.095 C40.02,85.259 40.159,85.378 40.326,85.378 L49.675,85.378 C49.839,85.378 49.982,85.261 50.007,85.097 L51.808,74.199 C51.949,73.336 52.57,72.627 53.406,72.367 C55.109,71.844 56.793,71.144 58.406,70.291 C59.177,69.877 60.117,69.945 60.832,70.455 L69.812,76.894 C70.072,76.955 70.166,76.939 70.248,76.855 L76.861,70.248 C76.976,70.131 76.99,69.943 76.896,69.807 L70.455,60.834 C69.943,60.119 69.879,59.18 70.291,58.406 C71.148,56.785 71.848,55.103 72.367,53.406 C72.623,52.566 73.33,51.947 74.197,51.804 L85.095,50.005 C85.263,49.978 85.382,49.837 85.382,49.669 L85.382,40.324 C85.382,40.156 85.261,40.017 85.097,39.992 L74.199,38.195 C73.332,38.052 72.623,37.432 72.367,36.593 C71.847,34.899 71.15,33.216 70.291,31.595 C69.879,30.822 69.943,29.88 70.453,29.168 L76.892,20.187 C76.988,20.054 76.974,19.864 76.859,19.75 L70.25,13.143 C70.166,13.06 70.076,13.044 70.012,13.044 L60.832,19.544 C60.115,20.053 59.176,20.117 58.402,19.706 C56.795,18.853 55.115,18.157 53.408,17.635 C52.568,17.381 51.945,16.67 51.804,15.802 L50.007,4.902 C49.982,4.739 49.839,4.62 49.673,4.62 L40.326,4.62 C40.159,4.62 40.02,4.739 39.993,4.904 L38.196,15.805 C38.053,16.671 37.431,17.382 36.592,17.636 C34.884,18.16 33.204,18.854 31.598,19.707 C30.823,20.118 29.882,20.054 29.17,19.545 L20.189,13.107 C19.926,13.037 19.834,13.058 19.752,13.143 L13.143,19.75 C13.025,19.867 13.011,20.054 13.109,20.194 L19.545,29.169 C20.054,29.881 20.119,30.823 19.709,31.596 C18.857,33.201 18.161,34.883 17.635,36.596 C17.377,37.433 16.667,38.053 15.802,38.196 L4.904,39.991 C4.738,40.018 4.62,40.16 4.62,40.329 L4.62,49.674 C4.62,49.84 4.742,49.985 4.91,50.012 L15.801,51.805 C16.666,51.948 17.377,52.567 17.634,53.407 C18.159,55.118 18.856,56.802 19.708,58.405 C20.119,59.178 20.056,60.12 19.544,60.835 L13.106,69.814 C13.009,69.947 13.026,70.136 13.142,70.252 L19.751,76.861 C19.836,76.945 19.938,76.957 19.991,76.957 L29.169,70.459 C29.568,70.17 30.04,70.025 30.514,70.025 Z M44.998,61.27 C36.025,61.27 28.727,53.969 28.727,44.999 C28.727,36.028 36.025,28.729 44.998,28.729 C53.971,28.729 61.27,36.028 61.27,44.999 C61.27,53.969 53.971,61.27 44.998,61.27 Z M44.998,33.348 C38.573,33.348 33.346,38.575 33.346,44.998 C33.346,51.421 38.574,56.65 44.998,56.65 C51.424,56.65 56.651,51.421 56.651,44.998 C56.65,38.575 51.424,33.348 44.998,33.348 Z" id="Shape"></path>
        </g>
    </g>
</svg>
