<?xml version="1.0" encoding="UTF-8"?><svg id="a" xmlns="http://www.w3.org/2000/svg" viewBox="0 0 40 40"><path id="b" d="M20.01,9.75c-5.66,0-10.26,4.59-10.26,10.25,0,5.66,4.59,10.26,10.25,10.26,5.66,0,10.26-4.59,10.26-10.25h0c0-5.66-4.57-10.25-10.22-10.26-.01,0-.02,0-.03,0Zm0,16.92c-3.68,0-6.67-2.98-6.67-6.67s2.98-6.67,6.67-6.67,6.67,2.98,6.67,6.67c0,3.68-2.99,6.66-6.67,6.67Zm13.06-17.34c0,1.32-1.07,2.39-2.39,2.4s-2.39-1.07-2.39-2.39c0-1.32,1.07-2.39,2.39-2.4h0c1.32,0,2.39,1.06,2.39,2.38h0Zm6.79,2.44c.07-3.11-1.09-6.12-3.23-8.38C34.36,1.24,31.36,.08,28.25,.14,24.95-.05,15.05-.05,11.75,.14c-3.11-.06-6.11,1.1-8.38,3.22C1.24,5.63,.08,8.64,.14,11.75-.05,15.05-.05,24.95,.14,28.25c-.07,3.11,1.09,6.12,3.23,8.38,2.27,2.13,5.27,3.29,8.38,3.23,3.3,.19,13.2,.19,16.5,0,3.11,.07,6.12-1.1,8.38-3.23,2.13-2.27,3.29-5.27,3.23-8.38,.19-3.3,.19-13.19,0-16.5h0Zm-4.26,20.05c-.69,1.74-2.06,3.12-3.8,3.8-2.63,1.05-8.88,.8-11.79,.8s-9.17,.23-11.79-.8c-1.74-.69-3.12-2.06-3.8-3.8-1.04-2.63-.8-8.88-.8-11.79s-.23-9.17,.8-11.79c.69-1.74,2.06-3.12,3.8-3.8,2.62-1.05,8.88-.8,11.79-.8s9.17-.23,11.79,.8c1.74,.69,3.12,2.06,3.8,3.8,1.04,2.63,.8,8.88,.8,11.79s.24,9.17-.81,11.79Z"/></svg>