<svg width="20px" height="20px" viewBox="0 0 20 20" version="1.1" xmlns="http://www.w3.org/2000/svg" xmlns:xlink="http://www.w3.org/1999/xlink">
    <g id="Page-1" stroke="none" stroke-width="1" fill-rule="evenodd">
        <g id="search" fill-rule="nonzero">
            <g id="Group">
                <g id="Shape">
                    <path d="M14.4917684,13.0775548 L19.4885358,18.0743222 C19.8772627,18.4630492 19.8785283,19.0920344 19.4852814,19.4852814 C19.0947571,19.8758057 18.4559712,19.8701848 18.0743222,19.4885358 L13.0775548,14.4917684 C9.9391253,16.9342662 5.39944393,16.7131524 2.51471863,13.8284271 C-0.609475708,10.7042328 -0.609475708,5.63891296 2.51471863,2.51471863 C5.63891296,-0.609475708 10.7042328,-0.609475708 13.8284271,2.51471863 C16.7131524,5.39944393 16.9342662,9.9391253 14.4917684,13.0775548 L14.4917684,13.0775548 Z M12.4142136,12.4142136 C14.7573593,10.0710678 14.7573593,6.27207794 12.4142136,3.92893219 C10.0710678,1.58578644 6.27207794,1.58578644 3.92893219,3.92893219 C1.58578644,6.27207794 1.58578644,10.0710678 3.92893219,12.4142136 C6.27207794,14.7573593 10.0710678,14.7573593 12.4142136,12.4142136 Z"></path>
                </g>
            </g>
        </g>
    </g>
</svg>
