<?xml version="1.0" encoding="UTF-8"?><svg id="a" xmlns="http://www.w3.org/2000/svg" viewBox="0 0 40 40"><path id="b" d="M35.89,11.85c.02,.36,.02,.71,.02,1.07,.09,12.79-10.21,23.24-23.01,23.32-.11,0-.21,0-.32,0C8.13,36.25,3.75,34.98,0,32.56c.66,.07,1.32,.11,1.98,.1,3.69,.01,7.28-1.22,10.18-3.5-3.51-.06-6.59-2.35-7.67-5.69,.51,.08,1.03,.12,1.55,.13,.73,0,1.45-.1,2.16-.28-3.83-.78-6.58-4.14-6.57-8.05v-.1c1.14,.63,2.41,.99,3.71,1.04C1.72,13.81,.61,9,2.79,5.25c4.16,5.13,10.31,8.24,16.9,8.58-.13-.62-.19-1.25-.2-1.88,0-4.53,3.68-8.2,8.21-8.2,2.26,0,4.43,.94,5.98,2.59,1.83-.36,3.59-1.03,5.2-1.98-.61,1.89-1.89,3.5-3.6,4.52,1.63-.18,3.22-.61,4.72-1.26-1.12,1.63-2.51,3.07-4.11,4.24h0Z"/></svg>