<?xml version="1.0" encoding="UTF-8"?><svg id="a" xmlns="http://www.w3.org/2000/svg" viewBox="0 0 40 40"><path id="b" d="M39.16,10.34c-.46-1.73-1.8-3.09-3.54-3.57-3.12-.83-15.63-.83-15.63-.83,0,0-12.5,0-15.63,.83-1.73,.47-3.08,1.83-3.54,3.57C.26,13.54-.02,16.78,0,20.03c-.02,3.25,.26,6.49,.83,9.69,.46,1.72,1.81,3.05,3.54,3.5,3.12,.83,15.63,.83,15.63,.83,0,0,12.5,0,15.63-.83,1.72-.45,3.07-1.78,3.54-3.5,.58-3.2,.85-6.44,.83-9.69,.02-3.25-.26-6.49-.83-9.69h0ZM15.92,25.98V14.09l10.46,5.95-10.46,5.95Z"/></svg>