<?xml version="1.0" encoding="utf-8"?>
<!-- Generator: Adobe Illustrator 26.2.1, SVG Export Plug-In . SVG Version: 6.00 Build 0)  -->
<svg version="1.1" id="Layer_1" xmlns="http://www.w3.org/2000/svg" xmlns:xlink="http://www.w3.org/1999/xlink" x="0px" y="0px"
	 viewBox="0 0 984 928" style="enable-background:new 0 0 984 928;" xml:space="preserve">
<path d="M983.1,804.8c0-32.6,0-65.1,0-97.7c0-52,0-104.1,0-156.1c0-12,0-24,0-35.9c0-1.1-0.1-2.3-0.3-3.4c-0.3-1.7-0.7-3.4-1.4-5
	c-1.4-3.8-4-7-7.9-8.8c-0.1-0.1-0.2-0.1-0.3-0.2c-1.5-0.9-3-1.5-4.5-1.9c-25.4-11.1-50.8-22-76.2-33.1
	c-42.4-18.4-84.7-36.8-127.1-55.2c-5.9-2.5-11.7-5.1-17.5-7.6c0-28.4,0-56.8,0-85.2c0-52.2,0-104.3,0-156.5c0-12,0-24,0-36.1
	c0-1.5-0.2-2.9-0.5-4.3c-0.9-5.7-3.9-10.9-9.4-13.3c-26.7-11.5-53.3-23-80-34.5c-42.1-18.2-84.3-36.4-126.4-54.5
	c-9.5-4.1-18.9-8.1-28.3-12.2c-0.3-0.2-0.6-0.4-1-0.6c-6.7-3.9-13.4-2.9-20.2,0c-26.5,11.4-52.9,22.9-79.4,34.3
	C360.3,55.4,318,73.7,275.6,92c-9.7,4.2-19.4,8.4-29.1,12.6c-4.1,1.8-7,5.9-8.6,10.3c-0.9,2.3-1.4,4.8-1.4,7.3c0,32.7,0,65.4,0,98.1
	c0,52.1,0,104.3,0,156.4c0,7.7,0,15.5,0,23.3c-2.6,1.1-5.2,2.2-7.7,3.3c-40.4,17.5-80.8,35-121.2,52.4
	c-31.8,13.7-63.9,26.8-95.3,41.3c-0.5,0.3-1.1,0.5-1.7,0.7c-6.8,3-10.1,10.7-9.8,18.2c0,32.7,0,65.4,0,98.1c0,52,0,104.1,0,156.1
	c0,12,0,24,0,35.9c0,6.4,3.7,14.6,9.9,17.3c27,11.7,53.9,23.3,80.9,35c42.3,18.3,84.6,36.6,126.9,54.9c9.3,4,18.5,8,27.8,12
	c0.5,0.2,1,0.4,1.4,0.6c2.7,1.4,5.7,2.2,8.9,2c1.2-0.1,2.5-0.2,3.6-0.5c2.2-0.4,4.4-1.1,6.8-2.1c1-0.4,2-0.9,3-1.3
	c4.7-2.1,9.5-4.1,14.2-6.2c40.4-17.5,80.8-35,121.2-52.5c29-12.5,58.4-24.6,87.2-37.6c23.3,10.1,46.6,20.2,69.8,30.3
	c42.4,18.4,84.7,36.7,127.1,55.1c9.3,4,18.6,8.1,27.9,12.1c0.1,0.1,0.2,0.1,0.3,0.1c2.9,1.7,6.3,2.7,9.9,2.6
	c1.8-0.1,3.5-0.4,5.1-0.9c1.7-0.4,3.5-1,5.4-1.8c1-0.4,1.9-0.8,2.9-1.3c4.7-2,9.4-4.1,14.2-6.1c40.3-17.5,80.6-34.9,120.9-52.4
	c31.8-13.8,64-26.9,95.5-41.4c0.5-0.3,1.1-0.5,1.7-0.7C980,820.3,983.4,812.2,983.1,804.8z M326.9,174.5
	c42.4,18.3,84.9,36.7,127.3,55c6,2.6,12,5.2,18,7.8c0,28.5,0,57,0,85.6c0,52.1,0,104.1,0,156.2c0,1.8,0,3.7,0,5.5
	c-16.9-7.3-33.7-14.6-50.6-21.9c-42.4-18.4-84.9-36.8-127.3-55.2c-6-2.6-12-5.2-18-7.8c0-28.3,0-56.6,0-84.9c0-52.1,0-104.3,0-156.4
	c0-1.9,0-3.9,0-5.8C293.2,159.8,310.1,167.1,326.9,174.5z M640.7,181.4c22.2-9.6,44.6-18.9,66.8-28.6c0,22.5,0,45,0,67.6
	c0,52.2,0,104.3,0,156.5c0,7.7,0,15.4,0,23.1c-23.3,10.1-46.6,20.2-69.9,30.2c-30.6,13.3-61.2,26.5-91.8,39.7
	c-11.2,4.8-22.5,9.5-33.6,14.4c0-22.7,0-45.4,0-68.2c0-52.1,0-104.1,0-156.2c0-7.7,0-15.3,0-22.9c2.5-1.1,5-2.2,7.5-3.3
	c23.7-10.3,47.5-20.6,71.2-30.9C607.5,195.7,624.2,188.5,640.7,181.4z M797.3,464.5c38.7,16.8,77.4,33.6,116,50.4
	c-13.2,5.7-26.4,11.4-39.7,17.2c-42.3,18.4-84.7,36.7-127,55.1c-6.3,2.7-12.6,5.5-18.9,8.2c-23.1-10-46.2-20-69.3-30
	c-38.7-16.8-77.5-33.6-116.2-50.4c13.4-5.8,26.8-11.6,40.2-17.4c28.4-12.3,56.8-24.6,85.2-36.9c20.2-8.6,40.5-17.2,60.5-26.2
	C751.2,444.5,774.2,454.5,797.3,464.5z M473.2,50c6.3-2.7,12.5-5.4,18.8-8.1c23.4,10.1,46.7,20.2,70.1,30.2
	c38.6,16.6,77.1,33.2,115.7,49.8c-13.3,5.8-26.7,11.6-40.1,17.4c-34.2,14.8-68.4,29.7-102.6,44.5c-7.9,3.4-15.9,6.9-23.8,10.3
	c-6.4,2.7-12.8,5.5-19.2,8.2c-23.1-10-46.2-20-69.3-29.9c-10.4-4.5-20.7-8.9-31-13.4c-28.4-12.3-56.8-24.7-85.3-37
	c13.2-5.7,26.4-11.4,39.6-17.1C388.5,86.6,430.8,68.3,473.2,50z M110.9,497.5c42.2-18.3,84.4-36.5,126.6-54.8
	c6.3-2.7,12.7-5.5,19-8.2c23.5,10.2,47.1,20.4,70.6,30.6c38.2,16.6,76.6,33.2,114.8,49.8c-13.3,5.8-26.6,11.5-39.9,17.3
	c-42.1,18.3-84.3,36.5-126.4,54.8c-6.4,2.8-12.8,5.5-19.2,8.3c-23.3-10.1-46.6-20.2-69.8-30.2c-38.7-16.7-77.4-33.4-116-50.1
	C84.1,509.1,97.5,503.3,110.9,497.5z M186.7,856.1c-42.2-18.2-84.4-36.5-126.5-54.7c-6.5-2.8-12.9-5.6-19.4-8.4
	c0-28.6,0-57.1,0-85.7c0-52,0-104.1,0-156.1c0-1.9,0-3.7,0-5.6c16.9,7.3,33.8,14.6,50.8,22c42.3,18.3,84.6,36.6,126.9,54.9
	c6.1,2.6,12.1,5.2,18.1,7.8c0,28.5,0,57,0,85.5c0,52,0,104,0,156.1c0,1.9,0,3.9,0,5.8C220,870.5,203.4,863.2,186.7,856.1z
	 M402.1,823.3c-41.8,18.1-83.7,36.2-125.5,54.3c0-22.8,0-45.7,0-68.5c0-52,0-104,0-156.1c0-7.6,0-15.1,0-22.7
	c2.5-1.1,5.1-2.2,7.6-3.3c40.4-17.5,80.8-35,121.2-52.5c22.2-9.6,44.6-19,66.8-28.7c0,22.7,0,45.4,0,68.1c0,52,0,104.1,0,156.1
	c0,7.7,0,15.3,0,23C448.9,803.1,425.5,813.2,402.1,823.3z M658.5,856.2c-42.3-18.3-84.7-36.7-127-55c-6.4-2.8-12.7-5.5-19.1-8.3
	c0-28.6,0-57.1,0-85.7c0-52,0-104.1,0-156.1c0-1.8,0-3.7,0-5.5c16.7,7.2,33.4,14.5,50.1,21.7c42.4,18.4,84.7,36.7,127.1,55.1
	c6,2.6,12,5.2,18,7.8c0,28.5,0,57.1,0,85.6c0,52,0,104,0,156.1c0,1.9,0,3.7,0,5.6C691.3,870.4,674.9,863.3,658.5,856.2z M873.7,823
	c-42,18.2-84.1,36.4-126.1,54.6c0-22.8,0-45.7,0-68.5c0-52,0-104,0-156.1c0-7.6,0-15.1,0-22.6c2.5-1.1,5.1-2.2,7.7-3.3
	c40.3-17.5,80.6-34.9,120.9-52.4c22.3-9.7,44.8-19.1,67.1-28.8c0,22.7,0,45.4,0,68.1c0,52,0,104.1,0,156.1c0,7.6,0,15.2,0,22.7
	C920.1,802.9,897,812.9,873.7,823z"/>
</svg>
